<?xml version="1.0" encoding="UTF-8" standalone="no"?>
<!-- Created with Inkscape (http://www.inkscape.org/) -->

<svg
   xmlns:dc="http://purl.org/dc/elements/1.1/"
   xmlns:cc="http://creativecommons.org/ns#"
   xmlns:rdf="http://www.w3.org/1999/02/22-rdf-syntax-ns#"
   xmlns:svg="http://www.w3.org/2000/svg"
   xmlns="http://www.w3.org/2000/svg"
   xmlns:sodipodi="http://sodipodi.sourceforge.net/DTD/sodipodi-0.dtd"
   xmlns:inkscape="http://www.inkscape.org/namespaces/inkscape"
   width="210mm"
   height="297mm"
   viewBox="0 0 210 297"
   version="1.1"
   id="svg8"
   inkscape:version="0.92.2 (5c3e80d, 2017-08-06)"
   sodipodi:docname="HeadGraphic.svg">
  <defs
     id="defs2" />
  <sodipodi:namedview
     id="base"
     pagecolor="#ffffff"
     bordercolor="#666666"
     borderopacity="1.0"
     inkscape:pageopacity="0.0"
     inkscape:pageshadow="2"
     inkscape:zoom="1.979899"
     inkscape:cx="208.34275"
     inkscape:cy="623.35288"
     inkscape:document-units="mm"
     inkscape:current-layer="g4536"
     showgrid="false"
     inkscape:window-width="1920"
     inkscape:window-height="1013"
     inkscape:window-x="-9"
     inkscape:window-y="-9"
     inkscape:window-maximized="1" />
  <metadata
     id="metadata5">
    <rdf:RDF>
      <cc:Work
         rdf:about="">
        <dc:format>image/svg+xml</dc:format>
        <dc:type
           rdf:resource="http://purl.org/dc/dcmitype/StillImage" />
        <dc:title></dc:title>
      </cc:Work>
    </rdf:RDF>
  </metadata>
  <g
     inkscape:label="Layer 1"
     inkscape:groupmode="layer"
     id="layer1">
    <g
       id="g4536">
      <path
         style="fill:#000000;fill-opacity:1;stroke:none;stroke-width:14.93225861;stroke-linecap:square;stroke-linejoin:miter;stroke-miterlimit:4;stroke-dasharray:none;stroke-dashoffset:589.152771;stroke-opacity:1;paint-order:markers stroke fill"
         d="m 376.42773,349.66211 c -53.66213,0 -97.16211,41.06377 -97.16211,100.90234 10e-6,59.83862 13.49998,115.79297 67.16211,115.79297 53.66212,0 127.16407,-55.95435 127.16407,-115.79297 0,-59.83857 -43.50195,-100.90233 -97.16407,-100.90234 z m -82.74414,85.67578 c 1.80291,0.0352 3.9282,0.66152 6.44141,1.56836 8.67378,3.12975 18.13455,17.91225 16.49023,41.76953 -1.14289,16.5823 -11.0097,13.82001 -15.83789,14.27344 -5.64129,0.52978 -18.33641,-9.86432 -16.49023,-33.60742 1.46943,-18.89793 3.98777,-24.1094 9.39648,-24.00391 z m 108.58399,1.51563 c 14.55951,-0.12215 21.3394,5.91197 25.29492,27.79101 4.96966,27.48851 -29.20306,39.52155 -44.38867,38.9082 -12.99683,-0.52493 -39.55629,2.67269 -42.63281,-16.52539 -4.42627,-27.62071 21.04198,-44.73594 44.39062,-48.35937 6.76522,-1.0499 12.48277,-1.77374 17.33594,-1.81445 z"
         transform="scale(0.26458333)"
         id="path4526"
         inkscape:connector-curvature="0" />
    </g>
  </g>
</svg>
